<svg width="13" height="15" viewBox="0 0 13 15" fill="none" xmlns="http://www.w3.org/2000/svg">
<path fill-rule="evenodd" clip-rule="evenodd" d="M12.728 8.57741C13.0907 8.90285 13.0907 9.43048 12.728 9.75592L7.1566 14.7559C6.79397 15.0814 6.20603 15.0814 5.8434 14.7559L0.271974 9.75592C-0.0906571 9.43048 -0.0906571 8.90285 0.271974 8.57741C0.634603 8.25197 1.22254 8.25197 1.58517 8.57741L5.57143 12.1548L5.57143 0.833333C5.57143 0.373096 5.98716 8.36272e-08 6.5 7.75117e-08C7.01284 7.13962e-08 7.42857 0.373096 7.42857 0.833333L7.42857 12.1548L11.4148 8.57741C11.7775 8.25197 12.3654 8.25197 12.728 8.57741Z" fill="#D61336"/>
</svg>
