<svg width="136" height="27" viewBox="0 0 136 27" fill="none" xmlns="http://www.w3.org/2000/svg">
<path d="M3.34015 19.2962C2.28536 18.7307 1.4767 17.9179 0.878986 16.9284C0.281276 15.9035 0 14.7726 0 13.5004C0 12.2281 0.316435 11.0973 0.914146 10.0724C1.51186 9.04753 2.32052 8.27005 3.37531 7.70461C4.43009 7.13917 5.59035 6.85645 6.89125 6.85645C7.94603 6.85645 8.89534 7.03315 9.77433 7.42189C10.6533 7.77529 11.3917 8.34073 11.9894 9.01219L10.4424 10.4611C9.52821 9.43627 8.36795 8.94151 6.99673 8.94151C6.11774 8.94151 5.30908 9.11821 4.64105 9.50695C3.93786 9.89569 3.41047 10.4258 2.98855 11.1326C2.6018 11.8394 2.39084 12.6169 2.39084 13.465C2.39084 14.3485 2.6018 15.126 2.98855 15.7975C3.37531 16.5043 3.93786 17.0344 4.64105 17.4231C5.34424 17.8119 6.11774 17.9886 6.99673 17.9886C8.36795 17.9886 9.49305 17.4938 10.4424 16.4689L11.9894 17.9532C11.3917 18.66 10.6533 19.1901 9.77433 19.5435C8.89534 19.8969 7.94603 20.109 6.89125 20.109C5.59035 20.1443 4.39493 19.8616 3.34015 19.2962Z" fill="white"/>
<path d="M43.5613 7.59864C44.4051 7.95205 45.038 8.48215 45.4599 9.18895C45.917 9.89575 46.1279 10.7086 46.1279 11.6628C46.1279 12.5816 45.917 13.4298 45.4599 14.1012C45.0028 14.808 44.37 15.3381 43.5613 15.6915C42.7175 16.0449 41.7682 16.257 40.6431 16.257H37.7248V20.003H35.334V7.0332H40.6431C41.7682 7.0332 42.7526 7.24524 43.5613 7.59864ZM42.9284 13.5358C43.4558 13.0764 43.7371 12.4756 43.7371 11.6274C43.7371 10.8146 43.4558 10.1785 42.9284 9.71905C42.401 9.25963 41.5924 9.04759 40.5727 9.04759H37.7951V14.1719H40.5727C41.5924 14.2072 42.3659 13.9952 42.9284 13.5358Z" fill="white"/>
<path d="M34.1739 14.1006L30.0602 26.9997H25.4192L23.3447 20.1084L21.1649 26.9997H16.4887L12.375 14.1006H16.8402L19.0905 21.4513L21.4461 14.1006H25.4192L27.6694 21.5573L30.025 14.1006H34.1739Z" fill="white"/>
<path d="M30.0602 12.9345L27.7045 5.47771L25.4543 12.9345H21.4461L19.0905 5.58373L16.8402 12.9345H12.375L16.4887 0H21.1297L23.3096 6.89132L25.4192 0H30.0602L34.1739 12.9345H30.0602Z" fill="white"/>
<path d="M54.3595 13.0758C53.8673 12.7931 53.4805 12.4043 53.1993 11.9449C52.918 11.4502 52.7773 10.9201 52.7773 10.3193C52.7773 9.7185 52.918 9.15306 53.1993 8.69364C53.4805 8.19887 53.8673 7.84547 54.3947 7.56275C54.8869 7.28003 55.4495 7.13867 56.0823 7.13867C56.5746 7.13867 56.9965 7.20935 57.4184 7.38605C57.8403 7.56275 58.1567 7.77479 58.438 8.12819L57.8755 8.69364C57.4184 8.19887 56.8207 7.95149 56.1175 7.95149C55.6604 7.95149 55.2385 8.05751 54.8517 8.26955C54.465 8.48159 54.1837 8.76432 53.9728 9.11772C53.7618 9.47112 53.6563 9.8952 53.6563 10.3546C53.6563 10.814 53.7618 11.2028 53.9728 11.5915C54.1837 11.9449 54.465 12.2276 54.8517 12.4397C55.2385 12.6517 55.6253 12.7577 56.1175 12.7577C56.8207 12.7577 57.3832 12.5104 57.8755 12.0156L58.438 12.581C58.1567 12.8991 57.8051 13.1465 57.4184 13.3232C56.9965 13.4999 56.5746 13.5706 56.0823 13.5706C55.4143 13.4999 54.8518 13.3585 54.3595 13.0758Z" fill="white"/>
<path d="M60.6525 13.0758C60.1603 12.7931 59.7383 12.4043 59.4571 11.9449C59.1758 11.4855 59.0352 10.9201 59.0352 10.3193C59.0352 9.7185 59.1758 9.1884 59.4571 8.69364C59.7383 8.19887 60.1251 7.81013 60.6525 7.56275C61.1447 7.28003 61.7073 7.13867 62.3401 7.13867C62.973 7.13867 63.5356 7.28003 64.0278 7.56275C64.52 7.84547 64.9068 8.23421 65.2232 8.69364C65.5045 9.1884 65.6451 9.7185 65.6451 10.3193C65.6451 10.9201 65.5045 11.4855 65.2232 11.9449C64.9419 12.4397 64.5552 12.7931 64.0278 13.0758C63.5356 13.3585 62.973 13.4999 62.3401 13.4999C61.7073 13.4999 61.1447 13.3585 60.6525 13.0758ZM63.5707 12.4043C63.9223 12.1923 64.2036 11.9096 64.4146 11.5562C64.6255 11.2028 64.731 10.7787 64.731 10.3193C64.731 9.85986 64.6255 9.47112 64.4146 9.08238C64.2036 8.69364 63.9223 8.44625 63.5707 8.23421C63.2191 8.02217 62.7972 7.91615 62.3401 7.91615C61.8831 7.91615 61.4612 8.02217 61.1096 8.23421C60.7228 8.44625 60.4415 8.72898 60.2306 9.08238C60.0196 9.43578 59.9141 9.85986 59.9141 10.3193C59.9141 10.7787 60.0196 11.1674 60.2306 11.5562C60.4415 11.9096 60.7228 12.1923 61.1096 12.4043C61.4612 12.6164 61.8831 12.7224 62.3401 12.7224C62.7972 12.6871 63.184 12.6164 63.5707 12.4043Z" fill="white"/>
<path d="M72.7486 13.429V8.87015L70.4984 12.6515H70.0765L67.8262 8.90549V13.429H66.9824V7.17383H67.7208L70.3226 11.556L72.8892 7.17383H73.6276V13.3937H72.7486V13.429Z" fill="white"/>
<path d="M81.188 13.429V8.87015L78.9378 12.6515H78.5159L76.3009 8.90549V13.429H75.457V7.17383H76.1954L78.7972 11.556L81.3638 7.17383H82.1022V13.3937H81.188V13.429Z" fill="white"/>
<path d="M85.0177 13.0758C84.5255 12.7931 84.1036 12.4043 83.8223 11.9449C83.541 11.4855 83.4004 10.9201 83.4004 10.3193C83.4004 9.7185 83.541 9.1884 83.8223 8.69364C84.1036 8.19887 84.4903 7.81013 85.0177 7.56275C85.51 7.28003 86.0725 7.13867 86.7054 7.13867C87.3383 7.13867 87.9008 7.28003 88.393 7.56275C88.8853 7.84547 89.272 8.23421 89.5885 8.69364C89.8697 9.1884 90.0104 9.7185 90.0104 10.3193C90.0104 10.9201 89.8697 11.4855 89.5885 11.9449C89.3072 12.4397 88.9204 12.7931 88.393 13.0758C87.9008 13.3585 87.3383 13.4999 86.7054 13.4999C86.0725 13.4999 85.51 13.3585 85.0177 13.0758ZM87.936 12.4043C88.2876 12.1923 88.5688 11.9096 88.7798 11.5562C88.9907 11.2028 89.0962 10.7787 89.0962 10.3193C89.0962 9.85986 88.9907 9.47112 88.7798 9.08238C88.5688 8.72898 88.2876 8.44625 87.936 8.23421C87.5844 8.02217 87.1625 7.91615 86.7054 7.91615C86.2483 7.91615 85.8264 8.02217 85.4748 8.23421C85.088 8.44625 84.8068 8.72898 84.5958 9.08238C84.3849 9.43578 84.2794 9.85986 84.2794 10.3193C84.2794 10.7787 84.3849 11.1674 84.5958 11.5562C84.8068 11.9096 85.088 12.1923 85.4748 12.4043C85.8264 12.6164 86.2483 12.7224 86.7054 12.7224C87.1625 12.6871 87.5844 12.6164 87.936 12.4043Z" fill="white"/>
<path d="M96.6919 7.17383V13.429H95.9535L92.2266 8.76413V13.429H91.3477V7.17383H92.086L95.8129 11.8387V7.17383H96.6919Z" fill="white"/>
<path d="M107.239 7.17383L105.165 13.429H104.251L102.563 8.44607L100.875 13.429H99.926L97.8516 7.20917H98.7657L100.453 12.2628L102.211 7.20917H103.02L104.743 12.2981L106.466 7.20917H107.239V7.17383Z" fill="white"/>
<path d="M112.829 12.6515V13.429H108.328V7.17383H112.723V7.95131H109.242V9.89502H112.336V10.6372H109.242V12.6515H112.829Z" fill="white"/>
<path d="M118.211 11.8749H114.906L114.238 13.4298H113.324L116.137 7.20996H117.016L119.829 13.4298H118.915L118.211 11.8749ZM117.93 11.1681L116.594 8.1288L115.258 11.1681H117.93Z" fill="white"/>
<path d="M120.773 7.17383H121.652V12.6515H125.028V13.429H120.773V7.17383Z" fill="white"/>
<path d="M126.682 7.95131H124.537V7.17383H129.67V7.95131H127.561V13.429H126.682V7.95131Z" fill="white"/>
<path d="M135.999 7.17383V13.429H135.12V10.6372H131.568V13.429H130.689V7.17383H131.568V9.85968H135.12V7.17383H135.999Z" fill="white"/>
<path d="M55.9768 15.6201C56.2933 15.7614 56.5042 15.9381 56.68 16.2208C56.8558 16.4682 56.9261 16.7863 56.9261 17.1043C56.9261 17.4577 56.8558 17.7405 56.68 17.9878C56.5042 18.2352 56.2933 18.4473 55.9768 18.5886C55.6604 18.73 55.3088 18.8007 54.9221 18.8007H53.9728V20.0729H52.8828V15.4434H54.8869C55.3088 15.4434 55.6604 15.4787 55.9768 15.6201ZM55.5549 17.7051C55.7307 17.5638 55.801 17.3517 55.801 17.1043C55.801 16.857 55.7307 16.6449 55.5549 16.5036C55.3791 16.3622 55.133 16.2915 54.8166 16.2915H53.9376V17.9172H54.8166C55.1682 17.9172 55.4143 17.8465 55.5549 17.7051Z" fill="white"/>
<path d="M63.887 19.0836H61.7423L61.3204 20.0731H60.2305L62.3049 15.4082H63.3597L65.4341 20.0731H64.309L63.887 19.0836ZM63.5706 18.2708L62.8323 16.4684L62.0939 18.2708H63.5706Z" fill="white"/>
<path d="M72.2893 20.1083L71.4103 18.8007H71.34H70.3907V20.1083H69.3008V15.4434H71.3049C71.7268 15.4434 72.0784 15.514 72.3597 15.6554C72.6761 15.7968 72.887 15.9735 73.0628 16.2562C73.2386 16.5036 73.309 16.8216 73.309 17.1397C73.309 17.4931 73.2386 17.7758 73.0628 18.0232C72.887 18.2706 72.6761 18.4826 72.3597 18.5886L73.4144 20.0729H72.2893V20.1083ZM72.0081 16.5036C71.8323 16.3622 71.5861 16.2915 71.2697 16.2915H70.3907V17.9172H71.2697C71.5861 17.9172 71.8323 17.8465 72.0081 17.7051C72.1839 17.5638 72.2542 17.3517 72.2542 17.1043C72.2542 16.857 72.1839 16.6449 72.0081 16.5036Z" fill="white"/>
<path d="M78.4767 16.2917H77V15.4082H81.0433V16.2917H79.5666V20.0731H78.4767V16.2917Z" fill="white"/>
<path d="M89.307 15.4434V20.1083H88.428L86.1075 17.281V20.1083H85.0527V15.4434H85.9317L88.2522 18.2706V15.4434H89.307Z" fill="white"/>
<path d="M97.3949 19.2247V20.1083H93.8086V15.4434H97.3245V16.3269H94.8985V17.3164H97.0433V18.1645H94.8985V19.2601H97.3949V19.2247Z" fill="white"/>
<path d="M104.604 20.1083L103.725 18.8007H103.654H102.705V20.1083H101.615V15.4434H103.619C104.041 15.4434 104.393 15.514 104.674 15.6554C104.991 15.7968 105.202 15.9735 105.377 16.2562C105.553 16.5036 105.623 16.8216 105.623 17.1397C105.623 17.4931 105.553 17.7758 105.377 18.0232C105.202 18.2706 104.991 18.4826 104.674 18.5886L105.729 20.0729H104.604V20.1083ZM104.323 16.5036C104.147 16.3622 103.901 16.2915 103.584 16.2915H102.705V17.9172H103.584C103.901 17.9172 104.147 17.8465 104.323 17.7051C104.498 17.5638 104.569 17.3517 104.569 17.1043C104.604 16.857 104.498 16.6449 104.323 16.5036Z" fill="white"/>
<path d="M110.369 20.0379C110.018 19.9319 109.736 19.7906 109.525 19.6492L109.877 18.8364C110.088 18.9777 110.299 19.0838 110.58 19.1898C110.861 19.2958 111.143 19.3311 111.389 19.3311C111.705 19.3311 111.916 19.2958 112.057 19.1898C112.198 19.0838 112.268 18.9777 112.268 18.8364C112.268 18.7304 112.233 18.6243 112.127 18.5537C112.057 18.483 111.916 18.4123 111.811 18.377C111.67 18.3416 111.494 18.2709 111.248 18.2356C110.897 18.1649 110.615 18.0589 110.369 17.9882C110.158 17.9175 109.947 17.7762 109.772 17.5641C109.596 17.3874 109.525 17.1401 109.525 16.822C109.525 16.5393 109.596 16.2919 109.736 16.0798C109.877 15.8678 110.088 15.6911 110.404 15.5497C110.686 15.4084 111.072 15.373 111.494 15.373C111.776 15.373 112.092 15.4084 112.373 15.4791C112.655 15.5497 112.901 15.6558 113.112 15.7971L112.795 16.61C112.373 16.3626 111.951 16.2565 111.494 16.2565C111.178 16.2565 110.967 16.2919 110.826 16.3979C110.686 16.5039 110.615 16.61 110.615 16.7867C110.615 16.9634 110.686 17.0694 110.861 17.1401C111.037 17.2107 111.283 17.2814 111.635 17.3874C111.987 17.4581 112.268 17.5641 112.514 17.6348C112.725 17.7055 112.936 17.8469 113.112 18.0236C113.287 18.2003 113.358 18.4476 113.358 18.7657C113.358 19.0484 113.287 19.2605 113.147 19.5078C113.006 19.7199 112.76 19.8966 112.479 20.0379C112.198 20.1793 111.811 20.2146 111.389 20.2146C111.072 20.1793 110.721 20.144 110.369 20.0379Z" fill="white"/>
<path d="M121.832 15.4434V20.1083H120.742V18.1999H118.633V20.1083H117.543V15.4434H118.633V17.281H120.742V15.4434H121.832Z" fill="white"/>
<path d="M126.33 15.4434H127.42V20.1083H126.33V15.4434Z" fill="white"/>
<path d="M134.979 15.6201C135.295 15.7614 135.506 15.9381 135.682 16.2208C135.858 16.4682 135.928 16.7863 135.928 17.1043C135.928 17.4577 135.858 17.7405 135.682 17.9878C135.506 18.2352 135.295 18.4473 134.979 18.5886C134.662 18.73 134.311 18.8007 133.924 18.8007H132.975V20.0729H131.885V15.4434H133.889C134.311 15.4434 134.662 15.4787 134.979 15.6201ZM134.592 17.7051C134.768 17.5638 134.838 17.3517 134.838 17.1043C134.838 16.857 134.768 16.6449 134.592 16.5036C134.416 16.3622 134.17 16.2915 133.854 16.2915H132.975V17.9172H133.854C134.17 17.9172 134.416 17.8465 134.592 17.7051Z" fill="white"/>
</svg>
